<mxfile host="app.diagrams.net" agent="Mozilla/5.0 (Windows NT 10.0; Win64; x64) AppleWebKit/537.36 (KHTML, like Gecko) Chrome/127.0.0.0 Safari/537.36 Edg/127.0.0.0" version="24.7.7">
  <diagram id="xuUUKhue_R7tiefVSpS-" name="Seite-1">
    <mxGraphModel dx="2226" dy="1311" grid="1" gridSize="10" guides="1" tooltips="1" connect="1" arrows="1" fold="1" page="0" pageScale="1" pageWidth="827" pageHeight="1169" math="0" shadow="0">
      <root>
        <mxCell id="0" />
        <mxCell id="1" parent="0" />
        <mxCell id="eEWZTHjZ0yC7olwLeoxw-5" value="" style="rounded=0;whiteSpace=wrap;html=1;" parent="1" vertex="1">
          <mxGeometry x="-340" y="20" width="890" height="330" as="geometry" />
        </mxCell>
        <mxCell id="eEWZTHjZ0yC7olwLeoxw-20" style="edgeStyle=orthogonalEdgeStyle;rounded=0;orthogonalLoop=1;jettySize=auto;html=1;exitX=1;exitY=0.5;exitDx=0;exitDy=0;entryX=0.25;entryY=1;entryDx=0;entryDy=0;" parent="1" source="eEWZTHjZ0yC7olwLeoxw-25" target="eEWZTHjZ0yC7olwLeoxw-8" edge="1">
          <mxGeometry relative="1" as="geometry" />
        </mxCell>
        <mxCell id="eEWZTHjZ0yC7olwLeoxw-1" value="Project Code Repository&lt;div&gt;&lt;br&gt;&lt;/div&gt;&lt;div&gt;&lt;br&gt;&lt;/div&gt;&lt;div&gt;&lt;br&gt;&lt;/div&gt;&lt;div&gt;&lt;br&gt;&lt;/div&gt;&lt;div&gt;&lt;br&gt;&lt;/div&gt;&lt;div&gt;&lt;br&gt;&lt;/div&gt;" style="shape=cylinder3;whiteSpace=wrap;html=1;boundedLbl=1;backgroundOutline=1;size=15;" parent="1" vertex="1">
          <mxGeometry x="-590" y="60" width="190" height="180" as="geometry" />
        </mxCell>
        <mxCell id="eEWZTHjZ0yC7olwLeoxw-2" value="Third Party Dependency Repositories" style="shape=cylinder3;whiteSpace=wrap;html=1;boundedLbl=1;backgroundOutline=1;size=15;" parent="1" vertex="1">
          <mxGeometry x="-585" y="-70" width="130" height="100" as="geometry" />
        </mxCell>
        <mxCell id="eEWZTHjZ0yC7olwLeoxw-3" value="Third Party Dependency Repositories" style="shape=cylinder3;whiteSpace=wrap;html=1;boundedLbl=1;backgroundOutline=1;size=15;" parent="1" vertex="1">
          <mxGeometry x="-575" y="-60" width="130" height="100" as="geometry" />
        </mxCell>
        <mxCell id="eEWZTHjZ0yC7olwLeoxw-16" style="edgeStyle=orthogonalEdgeStyle;rounded=0;orthogonalLoop=1;jettySize=auto;html=1;exitX=0;exitY=0.5;exitDx=0;exitDy=0;exitPerimeter=0;entryX=0;entryY=0.5;entryDx=0;entryDy=0;" parent="1" source="eEWZTHjZ0yC7olwLeoxw-4" target="eEWZTHjZ0yC7olwLeoxw-14" edge="1">
          <mxGeometry relative="1" as="geometry">
            <Array as="points">
              <mxPoint x="-600" />
              <mxPoint x="-600" y="160" />
            </Array>
          </mxGeometry>
        </mxCell>
        <mxCell id="eEWZTHjZ0yC7olwLeoxw-17" style="edgeStyle=orthogonalEdgeStyle;rounded=0;orthogonalLoop=1;jettySize=auto;html=1;exitX=1;exitY=0.5;exitDx=0;exitDy=0;exitPerimeter=0;entryX=0.25;entryY=0;entryDx=0;entryDy=0;" parent="1" source="eEWZTHjZ0yC7olwLeoxw-4" target="eEWZTHjZ0yC7olwLeoxw-8" edge="1">
          <mxGeometry relative="1" as="geometry" />
        </mxCell>
        <mxCell id="eEWZTHjZ0yC7olwLeoxw-4" value="Third Party Dependency Repositories" style="shape=cylinder3;whiteSpace=wrap;html=1;boundedLbl=1;backgroundOutline=1;size=15;" parent="1" vertex="1">
          <mxGeometry x="-565" y="-50" width="130" height="100" as="geometry" />
        </mxCell>
        <mxCell id="eEWZTHjZ0yC7olwLeoxw-27" style="edgeStyle=orthogonalEdgeStyle;rounded=0;orthogonalLoop=1;jettySize=auto;html=1;exitX=1;exitY=0.5;exitDx=0;exitDy=0;entryX=0;entryY=0.5;entryDx=0;entryDy=0;" parent="1" source="eEWZTHjZ0yC7olwLeoxw-6" target="eEWZTHjZ0yC7olwLeoxw-8" edge="1">
          <mxGeometry relative="1" as="geometry" />
        </mxCell>
        <mxCell id="eEWZTHjZ0yC7olwLeoxw-6" value="Analyze Dependency Tree" style="rounded=1;whiteSpace=wrap;html=1;" parent="1" vertex="1">
          <mxGeometry x="-320" y="130" width="120" height="60" as="geometry" />
        </mxCell>
        <mxCell id="eEWZTHjZ0yC7olwLeoxw-18" style="edgeStyle=orthogonalEdgeStyle;rounded=0;orthogonalLoop=1;jettySize=auto;html=1;exitX=0.75;exitY=0;exitDx=0;exitDy=0;entryX=0;entryY=0.25;entryDx=0;entryDy=0;" parent="1" source="eEWZTHjZ0yC7olwLeoxw-8" target="eEWZTHjZ0yC7olwLeoxw-12" edge="1">
          <mxGeometry relative="1" as="geometry" />
        </mxCell>
        <mxCell id="eEWZTHjZ0yC7olwLeoxw-21" style="edgeStyle=orthogonalEdgeStyle;rounded=0;orthogonalLoop=1;jettySize=auto;html=1;exitX=0.75;exitY=1;exitDx=0;exitDy=0;entryX=0;entryY=0.5;entryDx=0;entryDy=0;" parent="1" source="eEWZTHjZ0yC7olwLeoxw-8" target="eEWZTHjZ0yC7olwLeoxw-11" edge="1">
          <mxGeometry relative="1" as="geometry" />
        </mxCell>
        <mxCell id="JHhQLL7Nae5xic5dNa52-4" style="edgeStyle=orthogonalEdgeStyle;rounded=0;orthogonalLoop=1;jettySize=auto;html=1;exitX=1;exitY=0.5;exitDx=0;exitDy=0;entryX=0;entryY=0.5;entryDx=0;entryDy=0;" parent="1" source="eEWZTHjZ0yC7olwLeoxw-8" target="eEWZTHjZ0yC7olwLeoxw-9" edge="1">
          <mxGeometry relative="1" as="geometry" />
        </mxCell>
        <mxCell id="eEWZTHjZ0yC7olwLeoxw-8" value="Provide All Sources" style="rounded=1;whiteSpace=wrap;html=1;" parent="1" vertex="1">
          <mxGeometry x="-190" y="130" width="120" height="60" as="geometry" />
        </mxCell>
        <mxCell id="JHhQLL7Nae5xic5dNa52-5" style="edgeStyle=orthogonalEdgeStyle;rounded=0;orthogonalLoop=1;jettySize=auto;html=1;exitX=1;exitY=0.5;exitDx=0;exitDy=0;entryX=0;entryY=0.5;entryDx=0;entryDy=0;" parent="1" source="eEWZTHjZ0yC7olwLeoxw-9" target="K7p1FZsLge9AlGTGI-O_-1" edge="1">
          <mxGeometry relative="1" as="geometry" />
        </mxCell>
        <mxCell id="eEWZTHjZ0yC7olwLeoxw-9" value="Review all Sources&lt;div&gt;&lt;br&gt;&lt;/div&gt;&lt;div&gt;&lt;br&gt;&lt;/div&gt;&lt;div&gt;&lt;br&gt;&lt;/div&gt;&lt;div&gt;&lt;br&gt;&lt;/div&gt;&lt;div&gt;&lt;br&gt;&lt;/div&gt;&lt;div&gt;&lt;br&gt;&lt;/div&gt;&lt;div&gt;&lt;br&gt;&lt;/div&gt;&lt;div&gt;&lt;br&gt;&lt;/div&gt;&lt;div&gt;&lt;br&gt;&lt;/div&gt;" style="rounded=1;whiteSpace=wrap;html=1;" parent="1" vertex="1">
          <mxGeometry x="20" y="70" width="120" height="180" as="geometry" />
        </mxCell>
        <mxCell id="JHhQLL7Nae5xic5dNa52-10" style="edgeStyle=orthogonalEdgeStyle;rounded=0;orthogonalLoop=1;jettySize=auto;html=1;exitX=1;exitY=0.25;exitDx=0;exitDy=0;entryX=0;entryY=0.5;entryDx=0;entryDy=0;" parent="1" source="eEWZTHjZ0yC7olwLeoxw-11" target="eEWZTHjZ0yC7olwLeoxw-22" edge="1">
          <mxGeometry relative="1" as="geometry" />
        </mxCell>
        <mxCell id="eEWZTHjZ0yC7olwLeoxw-11" value="Project Sources" style="shape=document;whiteSpace=wrap;html=1;boundedLbl=1;" parent="1" vertex="1">
          <mxGeometry x="-60" y="180" width="70" height="60" as="geometry" />
        </mxCell>
        <mxCell id="JHhQLL7Nae5xic5dNa52-9" style="edgeStyle=orthogonalEdgeStyle;rounded=0;orthogonalLoop=1;jettySize=auto;html=1;exitX=1;exitY=0.5;exitDx=0;exitDy=0;entryX=0;entryY=0.5;entryDx=0;entryDy=0;" parent="1" source="eEWZTHjZ0yC7olwLeoxw-12" target="eEWZTHjZ0yC7olwLeoxw-23" edge="1">
          <mxGeometry relative="1" as="geometry">
            <Array as="points">
              <mxPoint x="10" y="125" />
            </Array>
          </mxGeometry>
        </mxCell>
        <mxCell id="eEWZTHjZ0yC7olwLeoxw-12" value="Dependency Sources" style="shape=document;whiteSpace=wrap;html=1;boundedLbl=1;" parent="1" vertex="1">
          <mxGeometry x="-60" y="90" width="70" height="60" as="geometry" />
        </mxCell>
        <mxCell id="eEWZTHjZ0yC7olwLeoxw-26" style="edgeStyle=orthogonalEdgeStyle;rounded=0;orthogonalLoop=1;jettySize=auto;html=1;exitX=1;exitY=0.5;exitDx=0;exitDy=0;entryX=0;entryY=0.5;entryDx=0;entryDy=0;" parent="1" source="eEWZTHjZ0yC7olwLeoxw-14" target="eEWZTHjZ0yC7olwLeoxw-6" edge="1">
          <mxGeometry relative="1" as="geometry" />
        </mxCell>
        <mxCell id="eEWZTHjZ0yC7olwLeoxw-14" value="Dependency Management" style="rounded=1;whiteSpace=wrap;html=1;" parent="1" vertex="1">
          <mxGeometry x="-580" y="140" width="120" height="40" as="geometry" />
        </mxCell>
        <mxCell id="eEWZTHjZ0yC7olwLeoxw-22" value="Project Review" style="rounded=1;whiteSpace=wrap;html=1;" parent="1" vertex="1">
          <mxGeometry x="40" y="180" width="80" height="30" as="geometry" />
        </mxCell>
        <mxCell id="eEWZTHjZ0yC7olwLeoxw-23" value="Dependency Review" style="rounded=1;whiteSpace=wrap;html=1;" parent="1" vertex="1">
          <mxGeometry x="40" y="110" width="80" height="30" as="geometry" />
        </mxCell>
        <mxCell id="eEWZTHjZ0yC7olwLeoxw-25" value="Source Code Versioning" style="rounded=1;whiteSpace=wrap;html=1;" parent="1" vertex="1">
          <mxGeometry x="-525" y="190" width="120" height="40" as="geometry" />
        </mxCell>
        <mxCell id="JHhQLL7Nae5xic5dNa52-6" style="edgeStyle=orthogonalEdgeStyle;rounded=0;orthogonalLoop=1;jettySize=auto;html=1;exitX=1;exitY=0.5;exitDx=0;exitDy=0;entryX=0;entryY=0.5;entryDx=0;entryDy=0;" parent="1" source="K7p1FZsLge9AlGTGI-O_-1" target="K7p1FZsLge9AlGTGI-O_-2" edge="1">
          <mxGeometry relative="1" as="geometry" />
        </mxCell>
        <mxCell id="K7p1FZsLge9AlGTGI-O_-1" value="Identify relevant Obligations" style="rounded=1;whiteSpace=wrap;html=1;" parent="1" vertex="1">
          <mxGeometry x="150" y="130" width="120" height="60" as="geometry" />
        </mxCell>
        <mxCell id="XHtEqkfqFvnu2nEaguyk-1" value="" style="edgeStyle=orthogonalEdgeStyle;rounded=0;orthogonalLoop=1;jettySize=auto;html=1;entryX=0;entryY=0;entryDx=0;entryDy=25;entryPerimeter=0;exitX=0.5;exitY=0;exitDx=0;exitDy=0;" parent="1" source="K7p1FZsLge9AlGTGI-O_-2" target="K7p1FZsLge9AlGTGI-O_-4" edge="1">
          <mxGeometry relative="1" as="geometry" />
        </mxCell>
        <mxCell id="XHtEqkfqFvnu2nEaguyk-2" style="edgeStyle=orthogonalEdgeStyle;rounded=0;orthogonalLoop=1;jettySize=auto;html=1;entryX=0.011;entryY=0.64;entryDx=0;entryDy=0;entryPerimeter=0;exitX=0.5;exitY=1;exitDx=0;exitDy=0;" parent="1" source="K7p1FZsLge9AlGTGI-O_-2" target="JHhQLL7Nae5xic5dNa52-3" edge="1">
          <mxGeometry relative="1" as="geometry" />
        </mxCell>
        <mxCell id="K7p1FZsLge9AlGTGI-O_-2" value="Fulfill Obligations in respective context" style="rounded=1;whiteSpace=wrap;html=1;" parent="1" vertex="1">
          <mxGeometry x="280" y="130" width="120" height="60" as="geometry" />
        </mxCell>
        <mxCell id="K7p1FZsLge9AlGTGI-O_-9" value="" style="edgeStyle=orthogonalEdgeStyle;rounded=0;orthogonalLoop=1;jettySize=auto;html=1;" parent="1" source="K7p1FZsLge9AlGTGI-O_-4" target="K7p1FZsLge9AlGTGI-O_-8" edge="1">
          <mxGeometry relative="1" as="geometry" />
        </mxCell>
        <mxCell id="K7p1FZsLge9AlGTGI-O_-4" value="" style="verticalLabelPosition=bottom;verticalAlign=top;html=1;shape=mxgraph.basic.layered_rect;dx=10;outlineConnect=0;" parent="1" vertex="1">
          <mxGeometry x="420" y="80" width="100" height="60" as="geometry" />
        </mxCell>
        <mxCell id="K7p1FZsLge9AlGTGI-O_-7" value="" style="edgeStyle=orthogonalEdgeStyle;rounded=0;orthogonalLoop=1;jettySize=auto;html=1;" parent="1" source="K7p1FZsLge9AlGTGI-O_-5" target="K7p1FZsLge9AlGTGI-O_-6" edge="1">
          <mxGeometry relative="1" as="geometry" />
        </mxCell>
        <mxCell id="K7p1FZsLge9AlGTGI-O_-5" value="" style="verticalLabelPosition=bottom;verticalAlign=top;html=1;shape=mxgraph.basic.layered_rect;dx=10;outlineConnect=0;align=center;" parent="1" vertex="1">
          <mxGeometry x="420" y="180" width="100" height="60" as="geometry" />
        </mxCell>
        <mxCell id="K7p1FZsLge9AlGTGI-O_-6" value="Storage" style="shape=datastore;whiteSpace=wrap;html=1;" parent="1" vertex="1">
          <mxGeometry x="610" y="180" width="60" height="60" as="geometry" />
        </mxCell>
        <mxCell id="K7p1FZsLge9AlGTGI-O_-8" value="Make available to the customer/user" style="rounded=1;whiteSpace=wrap;html=1;" parent="1" vertex="1">
          <mxGeometry x="580" y="80" width="120" height="60" as="geometry" />
        </mxCell>
        <mxCell id="rexv1V_cG0RWS3yGMFre-1" value="CODING" style="text;html=1;strokeColor=none;fillColor=none;align=center;verticalAlign=middle;whiteSpace=wrap;rounded=0;" parent="1" vertex="1">
          <mxGeometry x="-485" y="374" width="60" height="30" as="geometry" />
        </mxCell>
        <mxCell id="rexv1V_cG0RWS3yGMFre-2" value="ANALYZER" style="text;html=1;strokeColor=none;fillColor=none;align=center;verticalAlign=middle;whiteSpace=wrap;rounded=0;fontColor=#008ECF;" parent="1" vertex="1">
          <mxGeometry x="-313" y="374" width="60" height="30" as="geometry" />
        </mxCell>
        <mxCell id="rexv1V_cG0RWS3yGMFre-3" value="DOWNLOADER" style="text;html=1;strokeColor=none;fillColor=none;align=center;verticalAlign=middle;whiteSpace=wrap;rounded=0;fontColor=#008ECF;" parent="1" vertex="1">
          <mxGeometry x="-171" y="374" width="60" height="30" as="geometry" />
        </mxCell>
        <mxCell id="rexv1V_cG0RWS3yGMFre-4" value="SCANNER" style="text;html=1;strokeColor=none;fillColor=none;align=center;verticalAlign=middle;whiteSpace=wrap;rounded=0;fontColor=#008ECF;" parent="1" vertex="1">
          <mxGeometry x="6" y="374" width="60" height="30" as="geometry" />
        </mxCell>
        <mxCell id="rexv1V_cG0RWS3yGMFre-5" value="EVALUATOR" style="text;html=1;strokeColor=none;fillColor=none;align=center;verticalAlign=middle;whiteSpace=wrap;rounded=0;fontColor=#008ECF;" parent="1" vertex="1">
          <mxGeometry x="180" y="374" width="60" height="30" as="geometry" />
        </mxCell>
        <mxCell id="rexv1V_cG0RWS3yGMFre-6" value="REPORTER" style="text;html=1;strokeColor=none;fillColor=none;align=center;verticalAlign=middle;whiteSpace=wrap;rounded=0;fontColor=#008ECF;" parent="1" vertex="1">
          <mxGeometry x="360" y="374" width="60" height="30" as="geometry" />
        </mxCell>
        <mxCell id="rexv1V_cG0RWS3yGMFre-7" value="ADVISOR" style="text;html=1;strokeColor=none;fillColor=none;align=center;verticalAlign=middle;whiteSpace=wrap;rounded=0;fontColor=#008ECF;" parent="1" vertex="1">
          <mxGeometry x="87" y="374" width="60" height="30" as="geometry" />
        </mxCell>
        <mxCell id="rexv1V_cG0RWS3yGMFre-8" value="MAINTENANCE" style="text;html=1;strokeColor=none;fillColor=none;align=center;verticalAlign=middle;whiteSpace=wrap;rounded=0;" parent="1" vertex="1">
          <mxGeometry x="630" y="374" width="60" height="30" as="geometry" />
        </mxCell>
        <mxCell id="DgDBfwNnz2lhj84BkvK8-1" value="TRANSITION" style="text;html=1;strokeColor=none;fillColor=none;align=center;verticalAlign=middle;whiteSpace=wrap;rounded=0;" parent="1" vertex="1">
          <mxGeometry x="510" y="374" width="60" height="30" as="geometry" />
        </mxCell>
        <mxCell id="T1ONZzljZVpEbdtJxiyZ-1" value="INTEGRATION" style="text;html=1;strokeColor=none;fillColor=none;align=center;verticalAlign=middle;whiteSpace=wrap;rounded=0;" parent="1" vertex="1">
          <mxGeometry x="-585" y="374" width="60" height="30" as="geometry" />
        </mxCell>
        <mxCell id="n9HJxm3kv4PM5t58PjT2-1" value="identifying" style="text;html=1;strokeColor=none;fillColor=none;align=center;verticalAlign=middle;whiteSpace=wrap;rounded=0;fontStyle=2;fontColor=#005691;" parent="1" vertex="1">
          <mxGeometry x="-240" y="253" width="60" height="30" as="geometry" />
        </mxCell>
        <mxCell id="n9HJxm3kv4PM5t58PjT2-2" value="tracking" style="text;html=1;strokeColor=none;fillColor=none;align=center;verticalAlign=middle;whiteSpace=wrap;rounded=0;fontStyle=2;fontColor=#005691;" parent="1" vertex="1">
          <mxGeometry x="-26" y="253" width="60" height="30" as="geometry" />
        </mxCell>
        <mxCell id="n9HJxm3kv4PM5t58PjT2-3" value="reviewing" style="text;html=1;strokeColor=none;fillColor=none;align=center;verticalAlign=middle;whiteSpace=wrap;rounded=0;fontStyle=2;fontColor=#005691;" parent="1" vertex="1">
          <mxGeometry x="51" y="253" width="60" height="30" as="geometry" />
        </mxCell>
        <mxCell id="n9HJxm3kv4PM5t58PjT2-4" value="approving" style="text;html=1;strokeColor=none;fillColor=none;align=center;verticalAlign=middle;whiteSpace=wrap;rounded=0;fontStyle=2;fontColor=#005691;" parent="1" vertex="1">
          <mxGeometry x="180" y="253" width="60" height="30" as="geometry" />
        </mxCell>
        <mxCell id="n9HJxm3kv4PM5t58PjT2-5" value="archiving" style="text;html=1;strokeColor=none;fillColor=none;align=center;verticalAlign=middle;whiteSpace=wrap;rounded=0;fontStyle=2;fontColor=#005691;" parent="1" vertex="1">
          <mxGeometry x="309" y="253" width="60" height="30" as="geometry" />
        </mxCell>
        <mxCell id="n9HJxm3kv4PM5t58PjT2-6" value="bill of materials of open source components" style="text;html=1;strokeColor=none;fillColor=none;align=center;verticalAlign=middle;whiteSpace=wrap;rounded=0;fontStyle=2;fontColor=#005691;" parent="1" vertex="1">
          <mxGeometry x="400" y="44" width="140" height="30" as="geometry" />
        </mxCell>
        <mxCell id="n9HJxm3kv4PM5t58PjT2-7" value="review records" style="text;html=1;strokeColor=none;fillColor=none;align=center;verticalAlign=middle;whiteSpace=wrap;rounded=0;fontStyle=2;fontColor=#005691;" parent="1" vertex="1">
          <mxGeometry x="420" y="253" width="100" height="30" as="geometry" />
        </mxCell>
        <mxCell id="n9HJxm3kv4PM5t58PjT2-8" value="handling common open source license use cases" style="text;html=1;strokeColor=none;fillColor=none;align=center;verticalAlign=middle;whiteSpace=wrap;rounded=0;fontStyle=2;fontColor=#007E84;" parent="1" vertex="1">
          <mxGeometry x="200" y="283" width="150" height="30" as="geometry" />
        </mxCell>
        <mxCell id="n9HJxm3kv4PM5t58PjT2-9" value="referring to ISO5230 3.3.1" style="text;html=1;strokeColor=none;fillColor=none;align=center;verticalAlign=middle;whiteSpace=wrap;rounded=0;fontStyle=2;fontColor=#005691;" parent="1" vertex="1">
          <mxGeometry x="679" y="253" width="250" height="30" as="geometry" />
        </mxCell>
        <mxCell id="n9HJxm3kv4PM5t58PjT2-10" value="referring to ISO5230 3.3.2" style="text;html=1;strokeColor=none;fillColor=none;align=center;verticalAlign=middle;whiteSpace=wrap;rounded=0;fontStyle=2;fontColor=#007E84;" parent="1" vertex="1">
          <mxGeometry x="679" y="283" width="250" height="30" as="geometry" />
        </mxCell>
        <mxCell id="IHzb-_GoSoopotLW9giC-1" value="preparation and distribution of the required compliance artifacts" style="text;html=1;strokeColor=none;fillColor=none;align=center;verticalAlign=middle;whiteSpace=wrap;rounded=0;fontStyle=2;fontColor=#8B0158;" parent="1" vertex="1">
          <mxGeometry x="338" y="314" width="179" height="30" as="geometry" />
        </mxCell>
        <mxCell id="IHzb-_GoSoopotLW9giC-2" value="archiving copies of the compliance artifacts" style="text;html=1;strokeColor=none;fillColor=none;align=center;verticalAlign=middle;whiteSpace=wrap;rounded=0;fontStyle=2;fontColor=#8B0158;" parent="1" vertex="1">
          <mxGeometry x="560" y="314" width="179" height="30" as="geometry" />
        </mxCell>
        <mxCell id="IHzb-_GoSoopotLW9giC-3" value="referring to ISO5230 3.4.1" style="text;html=1;strokeColor=none;fillColor=none;align=center;verticalAlign=middle;whiteSpace=wrap;rounded=0;fontStyle=2;fontColor=#8B0158;" parent="1" vertex="1">
          <mxGeometry x="679" y="314" width="250" height="30" as="geometry" />
        </mxCell>
        <mxCell id="hZed_4Wwk7m99ahkbT5d-1" value="OSM Review" style="text;html=1;strokeColor=none;fillColor=none;align=center;verticalAlign=middle;whiteSpace=wrap;rounded=0;fontStyle=1" parent="1" vertex="1">
          <mxGeometry x="20" y="30" width="140" height="30" as="geometry" />
        </mxCell>
        <mxCell id="JHhQLL7Nae5xic5dNa52-1" value="FOSS Compliance Bundle" style="rounded=0;whiteSpace=wrap;html=1;" parent="1" vertex="1">
          <mxGeometry x="420" y="80" width="90" height="50" as="geometry" />
        </mxCell>
        <mxCell id="JHhQLL7Nae5xic5dNa52-3" value="OSS Review Documentation" style="rounded=0;whiteSpace=wrap;html=1;" parent="1" vertex="1">
          <mxGeometry x="420" y="180" width="90" height="50" as="geometry" />
        </mxCell>
        <mxCell id="PYz0iK1R5dMs60hai9iV-1" value="referring to Open Compliance Tooling Group" style="text;html=1;strokeColor=none;fillColor=none;align=center;verticalAlign=middle;whiteSpace=wrap;rounded=0;fontStyle=2;fontColor=#7EA6E0;" parent="1" vertex="1">
          <mxGeometry x="730" y="374" width="250" height="30" as="geometry" />
        </mxCell>
        <mxCell id="PYz0iK1R5dMs60hai9iV-2" value="Integration Approval" style="text;html=1;strokeColor=none;fillColor=none;align=center;verticalAlign=middle;whiteSpace=wrap;rounded=0;fontStyle=2;fontColor=#006249;" parent="1" vertex="1">
          <mxGeometry x="-585" y="423" width="60" height="30" as="geometry" />
        </mxCell>
        <mxCell id="PYz0iK1R5dMs60hai9iV-3" value="Development Monitoring" style="text;html=1;strokeColor=none;fillColor=none;align=center;verticalAlign=middle;whiteSpace=wrap;rounded=0;fontStyle=2;fontColor=#006249;" parent="1" vertex="1">
          <mxGeometry x="-26" y="423" width="60" height="30" as="geometry" />
        </mxCell>
        <mxCell id="PYz0iK1R5dMs60hai9iV-4" value="Distribution Approval" style="text;html=1;strokeColor=none;fillColor=none;align=center;verticalAlign=middle;whiteSpace=wrap;rounded=0;fontStyle=2;fontColor=#006249;" parent="1" vertex="1">
          <mxGeometry x="487.5" y="423" width="60" height="30" as="geometry" />
        </mxCell>
        <mxCell id="PYz0iK1R5dMs60hai9iV-5" value="Maintenance Monitoring" style="text;html=1;strokeColor=none;fillColor=none;align=center;verticalAlign=middle;whiteSpace=wrap;rounded=0;fontStyle=2;fontColor=#006249;" parent="1" vertex="1">
          <mxGeometry x="630" y="423" width="60" height="30" as="geometry" />
        </mxCell>
        <mxCell id="PYz0iK1R5dMs60hai9iV-6" value="" style="shape=curlyBracket;whiteSpace=wrap;html=1;rounded=1;flipH=1;fontColor=#006249;rotation=90;strokeColor=#006249;" parent="1" vertex="1">
          <mxGeometry x="-565" y="365" width="20" height="90" as="geometry" />
        </mxCell>
        <mxCell id="PYz0iK1R5dMs60hai9iV-7" value="" style="shape=curlyBracket;whiteSpace=wrap;html=1;rounded=1;flipH=1;fontColor=#006249;rotation=90;strokeColor=#006249;" parent="1" vertex="1">
          <mxGeometry x="-5.75" y="-134.75" width="20" height="1081.5" as="geometry" />
        </mxCell>
        <mxCell id="PYz0iK1R5dMs60hai9iV-8" value="" style="shape=curlyBracket;whiteSpace=wrap;html=1;rounded=1;flipH=1;fontColor=#006249;rotation=90;strokeColor=#006249;" parent="1" vertex="1">
          <mxGeometry x="507.5" y="327.5" width="20" height="165" as="geometry" />
        </mxCell>
        <mxCell id="PYz0iK1R5dMs60hai9iV-11" value="" style="shape=curlyBracket;whiteSpace=wrap;html=1;rounded=1;flipH=1;fontColor=#006249;rotation=90;strokeColor=#006249;" parent="1" vertex="1">
          <mxGeometry x="648.75" y="348.75" width="20" height="122.5" as="geometry" />
        </mxCell>
        <mxCell id="E2glu2OCsb4brHWwVSmb-1" value="ARCHITECTURE" style="text;html=1;strokeColor=none;fillColor=none;align=center;verticalAlign=middle;whiteSpace=wrap;rounded=0;" parent="1" vertex="1">
          <mxGeometry x="-690" y="374" width="60" height="30" as="geometry" />
        </mxCell>
        <mxCell id="E2glu2OCsb4brHWwVSmb-2" value="Software and System Architecture" style="shape=document;whiteSpace=wrap;html=1;boundedLbl=1;" parent="1" vertex="1">
          <mxGeometry x="-710" y="130" width="100" height="80" as="geometry" />
        </mxCell>
        <mxCell id="HB1cm-jtd8iq3pRU2G_S-1" value="&lt;div style=&quot;text-align: left; background-color: rgb(251, 251, 251); font-family: Consolas, &amp;quot;Courier New&amp;quot;, monospace; line-height: 19px; white-space: pre; font-size: 11px;&quot;&gt;SPDX-FileCopyrightText: 2024 Eclipse Apoapsis Contributors&lt;/div&gt;&lt;div style=&quot;text-align: left; background-color: rgb(251, 251, 251); font-family: Consolas, &amp;quot;Courier New&amp;quot;, monospace; line-height: 19px; white-space: pre; font-size: 11px;&quot;&gt;&lt;div style=&quot;line-height: 19px;&quot;&gt;SPDX-License-Identifier: CC-BY-4.0&lt;/div&gt;&lt;/div&gt;" style="text;html=1;align=center;verticalAlign=middle;whiteSpace=wrap;rounded=0;" vertex="1" parent="1">
          <mxGeometry x="760" y="480" width="60" height="30" as="geometry" />
        </mxCell>
      </root>
    </mxGraphModel>
  </diagram>
</mxfile>
